<svg width="64" height="64" viewBox="0 0 64 64" fill="none" xmlns="http://www.w3.org/2000/svg">
<path d="M11.1111 36.6555C10.7333 36.1888 9.76664 37.4666 9.06664 36.8555C8.36664 36.2555 9.3333 35.4222 9.7333 34.8999C10.4222 33.9888 11.2555 33.1666 12.1444 32.4666C12.4889 32.1888 13.2889 31.7777 13.6889 32.2888C13.9444 32.6111 14.0111 32.8999 13.6 33.6777C13.3777 34.0888 13.2666 34.3111 12.6777 35.0222C12.6777 35.2444 13.0111 35.4888 13.2666 35.7111C18.6111 40.3666 24.6444 43.5222 31.8555 43.8666C39.0666 44.2222 45.2666 41.9888 49.9777 36.2999C50.4 35.7999 50.9777 35.3333 51.0555 34.7555C51.1111 34.3222 50.9222 34.0999 50.3333 33.2777C50.1444 33.0222 50.0555 32.3999 50.4 32.0111C50.9666 31.3444 51.5777 31.6888 51.7889 31.8888C53.2222 33.2888 54.3333 34.9333 55.1444 36.4111C55.3 36.8999 55.0444 37.2999 54.7889 37.5444C54.5777 37.7444 54.0222 37.7222 53.6889 37.5999C53.3 37.4555 52.9777 37.1111 52.4666 36.7333C47.3111 43.4888 40.3444 46.711 31.9 46.3999C23.5889 46.1222 16.3111 42.5777 11.1111 36.6555Z" fill="black"/>
<path d="M41.3112 24.4442C41.2779 21.522 43.3445 19.1664 45.9223 19.1775C48.1667 19.1886 50.1667 21.4775 50.189 24.0664C50.2001 26.522 48.0223 28.7998 45.6112 28.8331C43.1779 28.8553 41.3334 26.9775 41.3112 24.4442ZM43.4556 24.1331C43.4779 25.5331 44.4334 26.5442 45.7334 26.522C46.8667 26.4998 47.9556 25.3886 47.9001 24.2775C47.8445 22.9109 47.1223 21.4998 45.3667 21.6998C44.3667 21.8109 43.4334 22.5109 43.4556 24.1331Z" fill="#CD4631"/>
<path d="M21.5222 22.1999C21.5 24.7999 19.3777 26.9999 16.8666 27.011C14.4777 27.0221 12.5777 24.911 12.6888 22.1888C12.8111 18.8443 14.6666 17.811 17.3888 17.5665C19.5222 17.3776 21.5333 19.7999 21.5222 22.1999ZM14.7777 21.9665C14.7666 23.611 15.6555 24.8443 16.8444 24.8554C18.1666 24.8665 19.3999 23.5776 19.3999 22.1665C19.3999 20.8665 18.2222 19.6221 17.0222 19.6554C15.5 19.6999 14.7777 20.4443 14.7777 21.9665Z" fill="#81ADC8"/>
</svg>
<svg width="36" height="36" viewBox="0 0 36 36" fill="none" xmlns="http://www.w3.org/2000/svg">
<circle cx="18" cy="18" r="15.75" fill="url(#paint0_linear_301_2751)"/>
<path d="M20.7527 9.73579C21.0931 9.1416 20.8896 8.38267 20.2981 8.04068C19.7067 7.69869 18.9513 7.90314 18.6109 8.49733L18.0172 9.53372L17.4234 8.49733C17.083 7.90314 16.3276 7.69869 15.7362 8.04068C15.1448 8.38267 14.9413 9.1416 15.2817 9.73579L16.5915 12.0222L12.4484 19.2543H9.11059C8.42819 19.2543 7.875 19.81 7.875 20.4956C7.875 21.1812 8.42819 21.737 9.11059 21.737H20.7365C20.8384 21.4679 20.9457 21.0062 20.8316 20.5818C20.66 19.9439 20.025 19.2543 18.961 19.2543H15.2997L20.7527 9.73579Z" fill="white"/>
<path d="M13.091 23.1097C12.8801 22.8744 12.4078 22.4986 11.9936 22.3749C11.3621 22.1862 10.8834 22.3046 10.6419 22.4077L9.72149 24.0142C9.38108 24.6084 9.58458 25.3673 10.176 25.7093C10.7675 26.0513 11.5229 25.8469 11.8633 25.2527L13.091 23.1097Z" fill="white"/>
<path d="M25.0082 21.737H26.8894C27.5718 21.737 28.125 21.1812 28.125 20.4956C28.125 19.81 27.5718 19.2543 26.8894 19.2543H23.5859L19.8647 12.7587C19.5883 13.0226 19.0583 13.6969 18.9782 14.4613C18.8752 15.444 19.0297 16.2716 19.493 17.0819C21.0508 19.8063 22.611 22.5295 24.1711 25.2527C24.5115 25.8469 25.2669 26.0513 25.8583 25.7093C26.4497 25.3673 26.6532 24.6084 26.3128 24.0142L25.0082 21.737Z" fill="white"/>
<defs>
<linearGradient id="paint0_linear_301_2751" x1="18" y1="2.25" x2="18" y2="33.75" gradientUnits="userSpaceOnUse">
<stop stop-color="#2AC9FA"/>
<stop offset="1" stop-color="#1F65EB"/>
</linearGradient>
</defs>
</svg>
