<svg width="50" height="50" viewBox="0 0 50 50" fill="none" xmlns="http://www.w3.org/2000/svg">
<path d="M42.4228 11.3111C42.4228 13.3729 40.7513 15.0444 38.6895 15.0444C36.6276 15.0444 34.9561 13.3729 34.9561 11.3111C34.9561 9.24922 36.6276 7.57775 38.6895 7.57775C40.7513 7.57775 42.4228 9.24922 42.4228 11.3111Z" fill="black"/>
<path fill-rule="evenodd" clip-rule="evenodd" d="M25.0006 37.4444C31.8735 37.4444 37.445 31.8729 37.445 25C37.445 18.1271 31.8735 12.5555 25.0006 12.5555C18.1277 12.5555 12.5561 18.1271 12.5561 25C12.5561 31.8729 18.1277 37.4444 25.0006 37.4444ZM25.0006 32.4666C29.1243 32.4666 32.4673 29.1237 32.4673 25C32.4673 20.8762 29.1243 17.5333 25.0006 17.5333C20.8769 17.5333 17.5339 20.8762 17.5339 25C17.5339 29.1237 20.8769 32.4666 25.0006 32.4666Z" fill="black"/>
<path fill-rule="evenodd" clip-rule="evenodd" d="M0.111694 24.0044C0.111694 15.641 0.111694 11.4592 1.73933 8.26483C3.17104 5.45494 5.45555 3.17043 8.26544 1.73872C11.4599 0.111084 15.6416 0.111084 24.005 0.111084H25.9961C34.3596 0.111084 38.5413 0.111084 41.7357 1.73872C44.5456 3.17043 46.8301 5.45494 48.2618 8.26483C49.8895 11.4592 49.8895 15.641 49.8895 24.0044V25.9955C49.8895 34.359 49.8895 38.5407 48.2618 41.7351C46.8301 44.545 44.5456 46.8295 41.7357 48.2612C38.5413 49.8889 34.3596 49.8889 25.9961 49.8889H24.005C15.6416 49.8889 11.4599 49.8889 8.26544 48.2612C5.45555 46.8295 3.17104 44.545 1.73933 41.7351C0.111694 38.5407 0.111694 34.359 0.111694 25.9955V24.0044ZM24.005 5.08886H25.9961C30.26 5.08886 33.1585 5.09273 35.399 5.27579C37.5813 5.45409 38.6973 5.77728 39.4759 6.17395C41.3491 7.12843 42.8721 8.65143 43.8266 10.5247C44.2233 11.3032 44.5465 12.4193 44.7248 14.6016C44.9078 16.842 44.9117 19.7406 44.9117 24.0044V25.9955C44.9117 30.2594 44.9078 33.1579 44.7248 35.3984C44.5465 37.5807 44.2233 38.6967 43.8266 39.4753C42.8721 41.3485 41.3491 42.8715 39.4759 43.826C38.6973 44.2227 37.5813 44.5459 35.399 44.7242C33.1585 44.9072 30.26 44.9111 25.9961 44.9111H24.005C19.7412 44.9111 16.8426 44.9072 14.6022 44.7242C12.4199 44.5459 11.3038 44.2227 10.5253 43.826C8.65204 42.8715 7.12904 41.3485 6.17456 39.4753C5.77789 38.6967 5.4547 37.5807 5.2764 35.3984C5.09334 33.1579 5.08947 30.2594 5.08947 25.9955V24.0044C5.08947 19.7406 5.09334 16.842 5.2764 14.6016C5.4547 12.4193 5.77789 11.3032 6.17456 10.5247C7.12904 8.65143 8.65204 7.12843 10.5253 6.17395C11.3038 5.77728 12.4199 5.45409 14.6022 5.27579C16.8426 5.09273 19.7412 5.08886 24.005 5.08886Z" fill="black"/>
</svg>
